# xmcd CD database file
#
# Track frame offsets:
#	183
#	18785
#	36900
#	62155
#	80428
#	95670
#	113805
#	140618
#	160270
#	184560
#	195923
#	224890
#	253840
#	271500
#
# Disc length: 3863 seconds
#
# Revision: 2
# Processed by: cddbd v1.4PL0 Copyright (c) Steve Scherf et al.
# Submitted via: CDex 1.51
#
DISCID=c10f150e
DTITLE=The Blues Barons - Great Bluesmen on Vanguard Record
DYEAR=1992
DGENRE=Blues
TTITLE0=Junior Wells - Help me
TTITLE1=Otis Spann - Blues is a Botheration
TTITLE2=Buddy Guy - One Room Country Shack
TTITLE3=Jimmy Cotton - The Blues Keep Falling
TTITLE4=Skip James - Hard Times Killing Floor Blues
TTITLE5=John Hammond - Midnight Hour Blues
TTITLE6=Otis Rush - It's My Own Fault
TTITLE7=Junior Wells - Stormy Monday Blues
TTITLE8=Buddy Guy - Hello San Francisco
TTITLE9=J. B. Hutto and his Hawks - Too much Alcohol
TTITLE10=Pee Wee Crayton - S. K. Blues
TTITLE11=Buddy Guy - (You Give Me) Fever
TTITLE12=John Hammond and the Nighthawks - Caress Me Baby
TTITLE13=Mississipi John Hurt - Richland Women Blues
EXTD=YEAR: 1992
EXTT0=
EXTT1=
EXTT2=
EXTT3=
EXTT4=
EXTT5=
EXTT6=
EXTT7=
EXTT8=
EXTT9=
EXTT10=
EXTT11=
EXTT12=
EXTT13=
PLAYORDER=
